<svg width="92" height="167" viewBox="0 0 92 167" fill="none" xmlns="http://www.w3.org/2000/svg">
<path fill-rule="evenodd" clip-rule="evenodd" d="M38.1826 148.743V166.715H57.1826V147.624C59.6238 147.134 61.9412 146.503 64.1349 145.73C70.1429 143.614 75.2222 140.736 79.373 137.095C83.5199 133.37 86.6509 129.011 88.7699 124.016C90.885 118.937 91.9445 113.434 91.9445 107.508C91.9445 102.344 90.9683 97.9418 89.0239 94.3018C87.1588 90.5768 84.6627 87.4446 81.5318 84.905C78.3969 82.3653 74.8413 80.249 70.8651 78.5558C66.8849 76.8625 62.7778 75.3387 58.5477 73.9843C58.0916 73.8262 57.6365 73.6696 57.1826 73.5145V33.6212C58.7118 33.8674 60.1404 34.2001 61.4683 34.6193C64.6826 35.5506 67.4366 36.6085 69.7223 37.7939C72.0913 38.8942 74.0794 39.9101 75.6905 40.8415C77.2977 41.7728 78.7381 42.2383 80.008 42.2383C82.123 42.2383 83.6905 41.3069 84.7064 39.4446L89.7858 31.1907C84.8731 26.5347 79.0318 22.8942 72.2619 20.27C67.6554 18.4048 62.6294 17.1817 57.1826 16.6008V0.0478516H38.1826V17.1399C35.3288 17.6421 32.6357 18.3468 30.1032 19.2542C24.4286 21.2859 19.6468 24.0371 15.754 27.5081C11.8571 30.8942 8.89687 34.8732 6.86512 39.4446C4.83338 43.9315 3.81748 48.63 3.81748 53.5399C3.81748 59.0427 4.74603 63.7411 6.61111 67.6351C8.55556 71.4446 11.0953 74.6617 14.2302 77.2859C17.3612 79.9101 20.9167 82.1113 24.8968 83.8891C28.9603 85.5823 33.0635 87.1061 37.2143 88.4605C37.5378 88.5641 37.8605 88.6674 38.1826 88.7705V132.314C35.6846 132.022 33.4571 131.542 31.5 130.873C28.0278 129.688 25.0635 128.376 22.6112 126.937C20.2382 125.497 18.2064 124.186 16.5159 123C14.8214 121.815 13.2143 121.222 11.6905 121.222C10.25 121.222 9.06351 121.519 8.13493 122.111C7.20239 122.704 6.39683 123.551 5.72223 124.651L0.388916 133.286C5.46828 137.857 11.6468 141.624 18.9286 144.588C24.5222 146.8 30.6174 148.162 37.2143 148.674C37.5359 148.699 37.8586 148.722 38.1826 148.743ZM57.1826 130.552C59.9687 129.429 62.3267 128.013 64.2619 126.302C66.4603 124.355 68.0715 122.111 69.0873 119.572C70.1865 117.032 70.7381 114.323 70.7381 111.445C70.7381 107.889 69.762 104.968 67.8175 102.683C65.9524 100.312 63.4564 98.3228 60.3255 96.7145C59.3248 96.174 58.2773 95.6594 57.1826 95.1708V130.552ZM38.1826 66.9341V35.1469C35.7941 36.0247 33.6921 37.1608 31.881 38.5557C29.762 40.249 28.1112 42.2383 26.9286 44.524C25.8254 46.7252 25.2778 49.1379 25.2778 51.7621C25.2778 55.0637 26.2064 57.8149 28.0715 60.0161C30.0159 62.2173 32.5556 64.122 35.6905 65.7303C36.4933 66.1427 37.324 66.544 38.1826 66.9341Z" fill="#00DD00"/>
</svg>
