<svg width="5000" height="4546" viewBox="0 0 5000 4546" fill="none" xmlns="http://www.w3.org/2000/svg">
<circle cx="2506" cy="2095" r="2000" fill="white"/>
<path d="M1932.62 1941.12V2938.54H1756.37V1941.12H1932.62ZM3257.62 1941.12V2938.54H3081.37V1941.12H3257.62Z" fill="black"/>
<path d="M2800.52 2105.55C2792.65 2119.99 2780.5 2127.22 2764.09 2127.22C2754.25 2127.22 2743.09 2123.61 2730.62 2116.38C2718.14 2109.16 2702.72 2101.29 2684.34 2092.75C2666.62 2083.56 2645.28 2075.36 2620.34 2068.14C2595.39 2060.26 2565.86 2056.32 2531.72 2056.32C2502.18 2056.32 2475.6 2060.26 2451.97 2068.14C2428.34 2075.36 2407.99 2085.53 2390.92 2098.66C2374.51 2111.79 2361.71 2127.22 2352.52 2144.94C2343.99 2162.01 2339.72 2180.71 2339.72 2201.06C2339.72 2226.66 2346.94 2247.99 2361.38 2265.06C2376.48 2282.13 2396.18 2296.9 2420.46 2309.37C2444.75 2321.84 2472.32 2333 2503.17 2342.85C2534.02 2352.04 2565.53 2362.21 2597.69 2373.37C2630.51 2383.87 2662.35 2395.69 2693.2 2408.82C2724.05 2421.94 2751.62 2438.35 2775.91 2458.05C2800.19 2477.74 2819.56 2502.02 2834 2530.91C2849.1 2559.13 2856.65 2593.27 2856.65 2633.31C2856.65 2679.26 2848.44 2721.92 2832.03 2761.31C2815.62 2800.04 2791.33 2833.84 2759.17 2862.72C2727.01 2890.95 2687.62 2913.27 2641.02 2929.68C2594.41 2946.09 2540.58 2954.29 2479.54 2954.29C2409.96 2954.29 2346.94 2943.13 2290.49 2920.82C2234.04 2897.84 2186.12 2868.63 2146.74 2833.18L2188.09 2766.23C2193.34 2757.7 2199.58 2751.13 2206.8 2746.54C2214.02 2741.94 2223.21 2739.65 2234.37 2739.65C2246.18 2739.65 2258.66 2744.24 2271.78 2753.43C2284.91 2762.62 2300.67 2772.79 2319.05 2783.95C2338.08 2795.11 2361.06 2805.29 2387.97 2814.48C2414.88 2823.67 2448.36 2828.26 2488.4 2828.26C2522.53 2828.26 2552.4 2823.99 2578 2815.46C2603.6 2806.27 2624.93 2794.13 2642 2779.03C2659.07 2763.93 2671.54 2746.54 2679.42 2726.85C2687.95 2707.15 2692.22 2686.15 2692.22 2663.83C2692.22 2636.26 2684.67 2613.62 2669.57 2595.89C2655.13 2577.51 2635.76 2562.09 2611.48 2549.62C2587.19 2536.49 2559.29 2525.33 2527.78 2516.14C2496.93 2506.29 2465.1 2496.12 2432.28 2485.62C2400.11 2475.11 2368.28 2463.3 2336.77 2450.17C2305.92 2436.38 2278.35 2419.32 2254.06 2398.97C2229.78 2378.62 2210.08 2353.68 2194.98 2324.14C2180.54 2293.94 2173.32 2257.51 2173.32 2214.85C2173.32 2176.78 2181.2 2140.34 2196.95 2105.55C2212.71 2070.11 2235.68 2039.26 2265.88 2013C2296.07 1986.09 2333.16 1964.75 2377.14 1949C2421.12 1933.25 2471.33 1925.37 2527.78 1925.37C2593.42 1925.37 2652.18 1935.87 2704.03 1956.88C2756.54 1977.22 2801.84 2005.45 2839.91 2041.55L2800.52 2105.55Z" fill="#00DD00"/>
<path d="M1580.99 1930.3L2560.06 951.229" stroke="black" stroke-width="150"/>
<path d="M2459.01 945.684L3438.08 1924.75" stroke="black" stroke-width="150"/>
<path d="M2515.38 1800.08V3092.38" stroke="#00DD00" stroke-width="150"/>
<path d="M3478.57 2163.47V2761.92H3372.82V2163.47H3478.57ZM4273.57 2163.47V2761.92H4167.82V2163.47H4273.57Z" fill="black"/>
<path d="M3267.6 2156.98L3855.04 1569.54" stroke="black" stroke-width="90"/>
<path d="M3794.41 1566.21L4381.85 2153.65" stroke="black" stroke-width="90"/>
<path d="M835.569 2163.47V2761.92H729.821V2163.47H835.569ZM1630.57 2163.47V2761.92H1524.82V2163.47H1630.57Z" fill="black"/>
<path d="M624.596 2156.98L1212.04 1569.54" stroke="black" stroke-width="90"/>
<path d="M1151.41 1566.21L1738.85 2153.65" stroke="black" stroke-width="90"/>
<path d="M4188.86 3667.81C4036.44 3713.12 3873.8 3727.69 3725.78 3783.72C3976.49 3545.1 3962.17 3175.89 4129.44 2894.85C4182.73 2815.28 4226.77 2731.87 4288.88 2656.37C4187.13 2882.92 4231.26 3176.86 4114.37 3396.71C4069.38 3484.04 4005.03 3568.76 3933.87 3637.36C3957.12 3636.39 3977.47 3614.05 3997.91 3599.13C4187.77 3388.83 4435.8 3330.02 4641.17 3159.16C4723.43 3086.4 4798.78 2991.05 4834.95 2887.92C4796.09 3236.83 4483.38 3563.86 4188.86 3667.81Z" fill="#00DD00"/>
<path d="M4872.83 2255.14C4779.94 2401.86 4667.57 2538.44 4581.75 2687.56C4591.32 2569.5 4603.92 2424.32 4562.49 2312.49C4490.7 2071.66 4427.62 1827.13 4407.27 1562.82L4410.08 1461.75C4464.1 1731.67 4702.98 1917.22 4687.9 2219.99C4693.37 2293.36 4672.93 2355.75 4660.55 2420.27L4664.65 2425.04L4675.41 2411.66C4710.84 2263.14 4728.71 2106.97 4783.79 1968.41C4862.07 1769.01 4959.81 1567.77 4919.98 1327.02C5039.03 1610.86 5002.96 1990.11 4872.83 2255.14Z" fill="#00DD00"/>
<path d="M4726.21 725.883C4882.84 961.508 4917.17 1337 4803.09 1607.27C4760.57 1721.81 4730.54 1843.86 4713.83 1970.63C4705.86 1948.76 4704.04 1919.37 4696.92 1895C4634.62 1630.45 4409.22 1441.91 4316.52 1192.48C4287.13 1110.91 4262.07 1026.63 4248.17 938.092C4347.22 1141.45 4591.33 1246.48 4657.86 1470.58C4685.11 1527.26 4683.58 1598.07 4700.49 1659.01C4704.04 1659.01 4707.59 1656.09 4707.59 1652.08C4678.3 1421.23 4687.24 1179.63 4715.46 951.648C4713.83 828.158 4702.98 708.371 4641.17 612.782C4680.8 638.414 4698.65 687.646 4726.21 725.883Z" fill="#00DD00"/>
<path d="M4615.78 680.653C4656.92 887.127 4596.82 1088.21 4634.62 1296.67L4633.21 1298.46C4532.02 1077.58 4317.18 973.339 4169.37 796.553C4083.7 691.648 4046.46 563.796 4025.03 428.421C4109.73 655.083 4338.28 705.028 4469.49 896.029C4513.4 940.063 4527.72 1001.06 4556.03 1051L4560.66 1046.04C4485.2 867.238 4459.92 666.016 4407.27 475.322C4380.91 392.691 4328.6 311.501 4258.4 259.402C4430.65 298.475 4579.93 498.079 4615.78 680.653Z" fill="#00DD00"/>
<path d="M4155.28 207.126C4285 335.998 4343.67 502.863 4381.55 675.754L4402.97 730.659C4214.69 580.349 4043.65 378.291 3923.42 164.894L3776.59 0C3905.67 60.756 4044.84 97.0225 4155.28 207.126Z" fill="#00DD00"/>
<path d="M1181.64 27.3643C1051.5 154.013 961.23 314.184 864.679 463.544C778.13 582.495 667.419 660.932 569.307 763.222C622.272 641.342 624.206 495.755 699.331 383.796C806.229 176.778 1004.46 103.946 1181.64 27.3643Z" fill="#00DD00"/>
<path d="M469.895 468.391C533.194 381.045 613.444 320.342 703.751 294.71C528.401 428.421 539.812 668.041 484.221 867.239C466.497 940.899 435.718 1008.76 420.383 1084.27L424.845 1088.21C454.022 1002.85 505.302 922.198 569.306 852.548C693.846 724.933 878.079 645.399 939.112 456.622C936.322 718.952 739.172 925.188 550.532 1072.62C472.741 1148.38 397.727 1234.71 354.888 1332.09C350.688 1265.91 363.701 1199.46 359.46 1128.56C338.945 899.556 324.039 638.177 469.895 468.391Z" fill="#00DD00"/>
<path d="M115.106 1251.45C109.829 1019.39 196.599 829.96 318.873 657.054C322.423 655.083 324.951 651.142 329.524 652.093C194.927 879.131 306.274 1165.11 300.14 1423.26L282.388 1687.57C285.027 1689.48 285.027 1697.43 291.271 1694.38C299.228 1664.92 300.955 1633.44 306.274 1603.13C337.979 1389.94 504.778 1238.66 650.468 1091.32C681.578 1052.79 709.084 1013.66 725.067 968.44C713.173 1074.59 683.195 1181.66 643.519 1279.83C530.128 1525.3 320.655 1726.7 282.388 2007.73C263.821 1738.42 98.6387 1537.07 115.106 1251.45Z" fill="#00DD00"/>
<path d="M13.2771 1581.45C28.349 1508.87 39.8704 1433.76 68.3288 1367.16C14.41 1673.95 200.301 1895 261.279 2160.92C286.795 2260.38 293.039 2367.2 329.524 2460.53C332.922 2462.57 335.878 2458.62 337.978 2455.63C247.188 2173.15 378.248 1910.66 509.944 1689.48C541.966 1629.55 560.423 1562.82 576.351 1493.93C590.346 1621.78 561.224 1769.01 544.495 1901.75C512.472 2070.64 464.673 2230.81 423.063 2394.69C395.682 2497.1 402.88 2612.63 416.943 2719.93L403.75 2708.23C307.199 2510.59 116.017 2356.45 59.2387 2140.54C12.5174 1968.41 -18.5383 1769.01 13.2771 1581.45Z" fill="#00DD00"/>
<path d="M4.56012 2180.64C25.821 2505.81 340.838 2677.64 486.86 2946.84C521.41 3001.92 551.388 3062.86 597.557 3108.97C590.346 3074.33 561.224 3045.18 550.532 3009.69C499.445 2896.78 480.823 2762.24 493.104 2625.77C507.25 2459.68 570.011 2305.56 546.056 2130.86C674.367 2437.95 635.396 2821.26 707.136 3154.02C725.923 3226.8 763.873 3291.79 788.739 3361.35C525.113 3162.04 165.64 2972.41 48.6843 2607.14C-0.606657 2481.2 -6.1049 2325.28 4.56012 2180.64Z" fill="#00DD00"/>
<path d="M162.034 2927.36C309.022 3296.47 677.157 3327.04 923.985 3551.81C969.408 3596.49 1017 3634.49 1068.28 3661L1070.92 3658.03C1014.25 3601.15 948.699 3536.38 909.024 3462.66C764.563 3239.7 815.373 2927.36 707.135 2687.56C805.482 2818.15 894.919 2953.89 954.294 3102.04C1042.61 3343.88 1076.36 3617.04 1280.72 3799.85C1059.56 3718.95 800.467 3741.55 605.265 3590.39C392.132 3444.98 201.917 3198.36 162.034 2927.36Z" fill="#00DD00"/>
<path d="M539.811 3615.95C775.49 3913.48 1160.59 3814.21 1474.53 3892.07C1518.87 3898.79 1559.46 3918.51 1606.46 3910.51C1569.04 3884.22 1517.11 3887.08 1476.26 3863.18C1230.17 3767.22 1194.08 3471.5 1060.49 3272.09C1231.16 3397.89 1374.63 3567.57 1532.08 3731.98C1645.25 3842.02 1781.48 3892.81 1925.01 3925.2C1890.52 3939.18 1845.3 3935.35 1808.28 3946.11C1550.41 4016.5 1263.92 4131.54 990.461 4028.55C812.679 3966.42 629.261 3810.37 539.811 3615.95Z" fill="#00DD00"/>
<path d="M3738.6 4309.48C3473.02 4419.5 3195.86 4304.45 2988.43 4129.85C2904.45 4070.6 2830.42 3985.28 2721.79 3992.82C2682.39 3992 2644.4 3994.14 2610.92 4004.88C2812.43 4108.97 2999.62 4252.47 3170.77 4436C3141.93 4472.55 3104.57 4506.75 3069.39 4538.28C2904.45 4341.01 2721.79 4151.14 2517.28 4040.24C2477.23 4046 2439.13 4072.75 2403.02 4094.28C2236.52 4211.13 2071.89 4361.44 1948.11 4545.45L1841.75 4447.96C2011.51 4257.35 2199.28 4108.97 2404.69 4002.97C2202.84 3932.01 2071.09 4119.7 1917.87 4215.18C1739.33 4353.56 1482.56 4418.54 1266.78 4323.07C1150.74 4274.21 1038.32 4202.26 954.295 4085.32C1124.11 4215.18 1377.01 4228.79 1570.13 4144.45C1829.26 4019.69 2098.54 3861.53 2410.93 3937.16C2459.69 3938.11 2507.06 3992 2553.11 3946.11C2785.3 3879.19 3048.17 3925.2 3248.06 4043L3454.1 4134.67C3645.6 4213.27 3893.18 4191.53 4057.33 4062.01C3972.94 4178.62 3857.65 4262.16 3738.6 4309.48Z" fill="#00DD00"/>
<path d="M4023.19 4004.87C3725.02 4129.85 3425.04 3976.44 3139.34 3925.2L3084.33 3917.44V3915.5C3220.95 3881.09 3353.55 3835.95 3462.29 3726.98C3622.44 3556.1 3764.96 3380.21 3942.81 3245.55C3810.92 3433.27 3796.94 3700.45 3579.07 3821.13C3525.15 3860.3 3457.09 3867.23 3401.45 3896.89C3480.8 3898.79 3553.45 3867.23 3632.03 3858.4C3924.18 3807.49 4258.4 3859.72 4463.36 3583.45C4387.27 3775.96 4196.71 3937.16 4023.19 4004.87Z" fill="#00DD00"/>
<path d="M4564.97 3073.61C4447.21 3159.16 4327.85 3238.5 4214.69 3335.77V3323.82C4388.01 3004.08 4303.29 2564.83 4410.07 2212.95L4449.9 2095.07C4427.62 2314.28 4513.39 2499.97 4507.37 2719.93C4501.35 2852.8 4462.28 2970.62 4399.42 3076.72H4410.07C4494.99 2952.92 4561.3 2821.26 4660.55 2703.34C4814.6 2538.44 4971.21 2369.36 4991.44 2140.54C5043.76 2522.54 4850.65 2857.34 4564.97 3073.61Z" fill="#00DD00"/>
</svg>
