<svg width="5000" height="4575" viewBox="0 0 5000 4575" fill="none" xmlns="http://www.w3.org/2000/svg">
<circle cx="2506" cy="2000" r="2000" fill="white"/>
<path d="M1938.62 1321.12V2318.54H1762.37V1321.12H1938.62ZM3263.62 1321.12V2318.54H3087.37V1321.12H3263.62Z" fill="black"/>
<path d="M2806.52 1485.55C2798.65 1499.99 2786.5 1507.22 2770.09 1507.22C2760.25 1507.22 2749.09 1503.61 2736.62 1496.38C2724.14 1489.16 2708.72 1481.29 2690.34 1472.75C2672.62 1463.56 2651.28 1455.36 2626.34 1448.14C2601.39 1440.26 2571.86 1436.32 2537.72 1436.32C2508.18 1436.32 2481.6 1440.26 2457.97 1448.14C2434.34 1455.36 2413.99 1465.53 2396.92 1478.66C2380.51 1491.79 2367.71 1507.22 2358.52 1524.94C2349.99 1542.01 2345.72 1560.71 2345.72 1581.06C2345.72 1606.66 2352.94 1627.99 2367.38 1645.06C2382.48 1662.13 2402.18 1676.9 2426.46 1689.37C2450.75 1701.84 2478.32 1713 2509.17 1722.85C2540.02 1732.04 2571.53 1742.21 2603.69 1753.37C2636.51 1763.87 2668.35 1775.69 2699.2 1788.82C2730.05 1801.94 2757.62 1818.35 2781.91 1838.05C2806.19 1857.74 2825.56 1882.02 2840 1910.91C2855.1 1939.13 2862.65 1973.27 2862.65 2013.31C2862.65 2059.26 2854.44 2101.92 2838.03 2141.31C2821.62 2180.04 2797.33 2213.84 2765.17 2242.72C2733.01 2270.95 2693.62 2293.27 2647.02 2309.68C2600.41 2326.09 2546.58 2334.29 2485.54 2334.29C2415.96 2334.29 2352.94 2323.13 2296.49 2300.82C2240.04 2277.84 2192.12 2248.63 2152.74 2213.18L2194.09 2146.23C2199.34 2137.7 2205.58 2131.13 2212.8 2126.54C2220.02 2121.94 2229.21 2119.65 2240.37 2119.65C2252.18 2119.65 2264.66 2124.24 2277.78 2133.43C2290.91 2142.62 2306.67 2152.79 2325.05 2163.95C2344.08 2175.11 2367.06 2185.29 2393.97 2194.48C2420.88 2203.67 2454.36 2208.26 2494.4 2208.26C2528.53 2208.26 2558.4 2203.99 2584 2195.46C2609.6 2186.27 2630.93 2174.13 2648 2159.03C2665.07 2143.93 2677.54 2126.54 2685.42 2106.85C2693.95 2087.15 2698.22 2066.15 2698.22 2043.83C2698.22 2016.26 2690.67 1993.62 2675.57 1975.89C2661.13 1957.51 2641.76 1942.09 2617.48 1929.62C2593.19 1916.49 2565.29 1905.33 2533.78 1896.14C2502.93 1886.29 2471.1 1876.12 2438.28 1865.62C2406.11 1855.11 2374.28 1843.3 2342.77 1830.17C2311.92 1816.38 2284.35 1799.32 2260.06 1778.97C2235.78 1758.62 2216.08 1733.68 2200.98 1704.14C2186.54 1673.94 2179.32 1637.51 2179.32 1594.85C2179.32 1556.78 2187.2 1520.34 2202.95 1485.55C2218.71 1450.11 2241.68 1419.26 2271.88 1393C2302.07 1366.09 2339.16 1344.75 2383.14 1329C2427.12 1313.25 2477.33 1305.37 2533.78 1305.37C2599.42 1305.37 2658.18 1315.87 2710.03 1336.88C2762.54 1357.22 2807.84 1385.45 2845.91 1421.55L2806.52 1485.55Z" fill="#00DD00"/>
<path d="M1586.99 1310.3L2566.06 331.229" stroke="black" stroke-width="150"/>
<path d="M2465.01 325.684L3444.08 1304.75" stroke="black" stroke-width="150"/>
<path d="M2521.38 1180.08V2472.38" stroke="#00DD00" stroke-width="150"/>
<path d="M3528.78 2842.48C3520.91 2856.92 3508.76 2864.14 3492.35 2864.14C3482.51 2864.14 3471.35 2860.53 3458.88 2853.31C3446.41 2846.09 3430.98 2838.21 3412.6 2829.68C3394.88 2820.49 3373.54 2812.28 3348.6 2805.06C3323.66 2797.18 3294.12 2793.25 3259.98 2793.25C3230.45 2793.25 3203.86 2797.18 3180.23 2805.06C3156.6 2812.28 3136.25 2822.46 3119.18 2835.58C3102.78 2848.71 3089.98 2864.14 3080.78 2881.86C3072.25 2898.93 3067.98 2917.64 3067.98 2937.98C3067.98 2963.58 3075.21 2984.92 3089.65 3001.98C3104.74 3019.05 3124.44 3033.82 3148.72 3046.29C3173.01 3058.76 3200.58 3069.92 3231.43 3079.77C3262.28 3088.96 3293.79 3099.13 3325.95 3110.29C3358.78 3120.79 3390.61 3132.61 3421.46 3145.74C3452.31 3158.87 3479.88 3175.28 3504.17 3194.97C3528.46 3214.66 3547.82 3238.95 3562.26 3267.83C3577.36 3296.06 3584.91 3330.19 3584.91 3370.23C3584.91 3416.18 3576.7 3458.85 3560.29 3498.23C3543.88 3536.96 3519.59 3570.76 3487.43 3599.65C3455.27 3627.87 3415.88 3650.19 3369.28 3666.6C3322.67 3683.01 3268.85 3691.22 3207.8 3691.22C3138.22 3691.22 3075.21 3680.06 3018.75 3657.74C2962.3 3634.76 2914.38 3605.55 2875 3570.11L2916.35 3503.15C2921.61 3494.62 2927.84 3488.06 2935.06 3483.46C2942.28 3478.87 2951.47 3476.57 2962.63 3476.57C2974.45 3476.57 2986.92 3481.16 3000.05 3490.35C3013.18 3499.54 3028.93 3509.72 3047.31 3520.88C3066.34 3532.04 3089.32 3542.21 3116.23 3551.4C3143.14 3560.59 3176.62 3565.18 3216.66 3565.18C3250.79 3565.18 3280.66 3560.92 3306.26 3552.38C3331.86 3543.19 3353.19 3531.05 3370.26 3515.95C3387.33 3500.86 3399.8 3483.46 3407.68 3463.77C3416.21 3444.08 3420.48 3423.07 3420.48 3400.75C3420.48 3373.18 3412.93 3350.54 3397.83 3332.82C3383.39 3314.44 3364.02 3299.01 3339.74 3286.54C3315.45 3273.41 3287.55 3262.25 3256.05 3253.06C3225.19 3243.22 3193.36 3233.04 3160.54 3222.54C3128.38 3212.04 3096.54 3200.22 3065.03 3187.09C3034.18 3173.31 3006.61 3156.24 2982.32 3135.89C2958.04 3115.54 2938.34 3090.6 2923.25 3061.06C2908.81 3030.87 2901.58 2994.44 2901.58 2951.77C2901.58 2913.7 2909.46 2877.27 2925.22 2842.48C2940.97 2807.03 2963.94 2776.18 2994.14 2749.92C3024.33 2723.01 3061.42 2701.68 3105.4 2685.92C3149.38 2670.17 3199.59 2662.29 3256.05 2662.29C3321.69 2662.29 3380.44 2672.79 3432.29 2693.8C3484.81 2714.15 3530.1 2742.38 3568.17 2778.48L3528.78 2842.48Z" fill="#00DD00"/>
<path d="M3243.65 2537V3829.31" stroke="#00DD00" stroke-width="150"/>
<path d="M2073.78 2842.48C2065.91 2856.92 2053.76 2864.14 2037.35 2864.14C2027.51 2864.14 2016.35 2860.53 2003.88 2853.31C1991.41 2846.09 1975.98 2838.21 1957.6 2829.68C1939.88 2820.49 1918.54 2812.28 1893.6 2805.06C1868.66 2797.18 1839.12 2793.25 1804.98 2793.25C1775.45 2793.25 1748.86 2797.18 1725.23 2805.06C1701.6 2812.28 1681.25 2822.46 1664.18 2835.58C1647.78 2848.71 1634.98 2864.14 1625.78 2881.86C1617.25 2898.93 1612.98 2917.64 1612.98 2937.98C1612.98 2963.58 1620.21 2984.92 1634.65 3001.98C1649.74 3019.05 1669.44 3033.82 1693.72 3046.29C1718.01 3058.76 1745.58 3069.92 1776.43 3079.77C1807.28 3088.96 1838.79 3099.13 1870.95 3110.29C1903.78 3120.79 1935.61 3132.61 1966.46 3145.74C1997.31 3158.87 2024.88 3175.28 2049.17 3194.97C2073.46 3214.66 2092.82 3238.95 2107.26 3267.83C2122.36 3296.06 2129.91 3330.19 2129.91 3370.23C2129.91 3416.18 2121.7 3458.85 2105.29 3498.23C2088.88 3536.96 2064.59 3570.76 2032.43 3599.65C2000.27 3627.87 1960.88 3650.19 1914.28 3666.6C1867.67 3683.01 1813.85 3691.22 1752.8 3691.22C1683.22 3691.22 1620.21 3680.06 1563.75 3657.74C1507.3 3634.76 1459.38 3605.55 1420 3570.11L1461.35 3503.15C1466.61 3494.62 1472.84 3488.06 1480.06 3483.46C1487.28 3478.87 1496.47 3476.57 1507.63 3476.57C1519.45 3476.57 1531.92 3481.16 1545.05 3490.35C1558.18 3499.54 1573.93 3509.72 1592.31 3520.88C1611.34 3532.04 1634.32 3542.21 1661.23 3551.4C1688.14 3560.59 1721.62 3565.18 1761.66 3565.18C1795.79 3565.18 1825.66 3560.92 1851.26 3552.38C1876.86 3543.19 1898.19 3531.05 1915.26 3515.95C1932.33 3500.86 1944.8 3483.46 1952.68 3463.77C1961.21 3444.08 1965.48 3423.07 1965.48 3400.75C1965.48 3373.18 1957.93 3350.54 1942.83 3332.82C1928.39 3314.44 1909.02 3299.01 1884.74 3286.54C1860.45 3273.41 1832.55 3262.25 1801.05 3253.06C1770.19 3243.22 1738.36 3233.04 1705.54 3222.54C1673.38 3212.04 1641.54 3200.22 1610.03 3187.09C1579.18 3173.31 1551.61 3156.24 1527.32 3135.89C1503.04 3115.54 1483.34 3090.6 1468.25 3061.06C1453.81 3030.87 1446.58 2994.44 1446.58 2951.77C1446.58 2913.7 1454.46 2877.27 1470.22 2842.48C1485.97 2807.03 1508.94 2776.18 1539.14 2749.92C1569.33 2723.01 1606.42 2701.68 1650.4 2685.92C1694.38 2670.17 1744.59 2662.29 1801.05 2662.29C1866.69 2662.29 1925.44 2672.79 1977.29 2693.8C2029.81 2714.15 2075.1 2742.38 2113.17 2778.48L2073.78 2842.48Z" fill="#00DD00"/>
<path d="M1788.65 2537V3829.31" stroke="#00DD00" stroke-width="150"/>
<path d="M4223.78 1891.48C4215.91 1905.92 4203.76 1913.14 4187.35 1913.14C4177.51 1913.14 4166.35 1909.53 4153.88 1902.31C4141.41 1895.09 4125.98 1887.21 4107.6 1878.68C4089.88 1869.49 4068.54 1861.28 4043.6 1854.06C4018.66 1846.18 3989.12 1842.25 3954.98 1842.25C3925.45 1842.25 3898.86 1846.18 3875.23 1854.06C3851.6 1861.28 3831.25 1871.46 3814.18 1884.58C3797.78 1897.71 3784.98 1913.14 3775.78 1930.86C3767.25 1947.93 3762.98 1966.64 3762.98 1986.98C3762.98 2012.58 3770.21 2033.92 3784.65 2050.98C3799.74 2068.05 3819.44 2082.82 3843.72 2095.29C3868.01 2107.76 3895.58 2118.92 3926.43 2128.77C3957.28 2137.96 3988.79 2148.13 4020.95 2159.29C4053.78 2169.79 4085.61 2181.61 4116.46 2194.74C4147.31 2207.87 4174.88 2224.28 4199.17 2243.97C4223.46 2263.66 4242.82 2287.95 4257.26 2316.83C4272.36 2345.06 4279.91 2379.19 4279.91 2419.23C4279.91 2465.18 4271.7 2507.85 4255.29 2547.23C4238.88 2585.96 4214.59 2619.76 4182.43 2648.65C4150.27 2676.87 4110.88 2699.19 4064.28 2715.6C4017.67 2732.01 3963.85 2740.22 3902.8 2740.22C3833.22 2740.22 3770.21 2729.06 3713.75 2706.74C3657.3 2683.76 3609.38 2654.55 3570 2619.11L3611.35 2552.15C3616.61 2543.62 3622.84 2537.06 3630.06 2532.46C3637.28 2527.87 3646.47 2525.57 3657.63 2525.57C3669.45 2525.57 3681.92 2530.16 3695.05 2539.35C3708.18 2548.54 3723.93 2558.72 3742.31 2569.88C3761.34 2581.04 3784.32 2591.21 3811.23 2600.4C3838.14 2609.59 3871.62 2614.18 3911.66 2614.18C3945.79 2614.18 3975.66 2609.92 4001.26 2601.38C4026.86 2592.19 4048.19 2580.05 4065.26 2564.95C4082.33 2549.86 4094.8 2532.46 4102.68 2512.77C4111.21 2493.08 4115.48 2472.07 4115.48 2449.75C4115.48 2422.18 4107.93 2399.54 4092.83 2381.82C4078.39 2363.44 4059.02 2348.01 4034.74 2335.54C4010.45 2322.41 3982.55 2311.25 3951.05 2302.06C3920.19 2292.22 3888.36 2282.04 3855.54 2271.54C3823.38 2261.04 3791.54 2249.22 3760.03 2236.09C3729.18 2222.31 3701.61 2205.24 3677.32 2184.89C3653.04 2164.54 3633.34 2139.6 3618.25 2110.06C3603.81 2079.87 3596.58 2043.44 3596.58 2000.77C3596.58 1962.7 3604.46 1926.27 3620.22 1891.48C3635.97 1856.03 3658.94 1825.18 3689.14 1798.92C3719.33 1772.01 3756.42 1750.68 3800.4 1734.92C3844.38 1719.17 3894.59 1711.29 3951.05 1711.29C4016.69 1711.29 4075.44 1721.79 4127.29 1742.8C4179.81 1763.15 4225.1 1791.38 4263.17 1827.48L4223.78 1891.48Z" fill="#00DD00"/>
<path d="M3938.65 1586V2878.31" stroke="#00DD00" stroke-width="150"/>
<path d="M1322.78 1891.48C1314.91 1905.92 1302.76 1913.14 1286.35 1913.14C1276.51 1913.14 1265.35 1909.53 1252.88 1902.31C1240.41 1895.09 1224.98 1887.21 1206.6 1878.68C1188.88 1869.49 1167.54 1861.28 1142.6 1854.06C1117.66 1846.18 1088.12 1842.25 1053.98 1842.25C1024.45 1842.25 997.862 1846.18 974.231 1854.06C950.6 1861.28 930.252 1871.46 913.185 1884.58C896.775 1897.71 883.975 1913.14 874.785 1930.86C866.252 1947.93 861.985 1966.64 861.985 1986.98C861.985 2012.58 869.206 2033.92 883.646 2050.98C898.745 2068.05 918.437 2082.82 942.723 2095.29C967.009 2107.76 994.579 2118.92 1025.43 2128.77C1056.28 2137.96 1087.79 2148.13 1119.95 2159.29C1152.78 2169.79 1184.61 2181.61 1215.46 2194.74C1246.31 2207.87 1273.88 2224.28 1298.17 2243.97C1322.46 2263.66 1341.82 2287.95 1356.26 2316.83C1371.36 2345.06 1378.91 2379.19 1378.91 2419.23C1378.91 2465.18 1370.7 2507.85 1354.29 2547.23C1337.88 2585.96 1313.59 2619.76 1281.43 2648.65C1249.27 2676.87 1209.88 2699.19 1163.28 2715.6C1116.67 2732.01 1062.85 2740.22 1001.8 2740.22C932.222 2740.22 869.206 2729.06 812.754 2706.74C756.302 2683.76 708.385 2654.55 669 2619.11L710.354 2552.15C715.606 2543.62 721.84 2537.06 729.062 2532.46C736.283 2527.87 745.471 2525.57 756.631 2525.57C768.446 2525.57 780.917 2530.16 794.046 2539.35C807.175 2548.54 822.929 2558.72 841.308 2569.88C860.345 2581.04 883.317 2591.21 910.231 2600.4C937.145 2609.59 970.622 2614.18 1010.66 2614.18C1044.79 2614.18 1074.66 2609.92 1100.26 2601.38C1125.86 2592.19 1147.19 2580.05 1164.26 2564.95C1181.33 2549.86 1193.8 2532.46 1201.68 2512.77C1210.21 2493.08 1214.48 2472.07 1214.48 2449.75C1214.48 2422.18 1206.93 2399.54 1191.83 2381.82C1177.39 2363.44 1158.02 2348.01 1133.74 2335.54C1109.45 2322.41 1081.55 2311.25 1050.05 2302.06C1019.19 2292.22 987.36 2282.04 954.539 2271.54C922.375 2261.04 890.539 2249.22 859.031 2236.09C828.179 2222.31 800.609 2205.24 776.323 2184.89C752.037 2164.54 732.345 2139.6 717.246 2110.06C702.806 2079.87 695.585 2043.44 695.585 2000.77C695.585 1962.7 703.462 1926.27 719.215 1891.48C734.969 1856.03 757.945 1825.18 788.139 1798.92C818.332 1772.01 855.422 1750.68 899.4 1734.92C943.379 1719.17 993.594 1711.29 1050.05 1711.29C1115.69 1711.29 1174.44 1721.79 1226.29 1742.8C1278.81 1763.15 1324.1 1791.38 1362.17 1827.48L1322.78 1891.48Z" fill="#00DD00"/>
<path d="M1037.65 1586V2878.31" stroke="#00DD00" stroke-width="150"/>
<path d="M4188.86 3696.81C4036.44 3742.12 3873.8 3756.69 3725.78 3812.72C3976.49 3574.1 3962.17 3204.89 4129.44 2923.85C4182.73 2844.28 4226.77 2760.87 4288.88 2685.37C4187.13 2911.92 4231.26 3205.86 4114.37 3425.71C4069.38 3513.04 4005.03 3597.76 3933.87 3666.36C3957.12 3665.39 3977.47 3643.05 3997.91 3628.13C4187.77 3417.83 4435.8 3359.02 4641.17 3188.16C4723.43 3115.4 4798.78 3020.05 4834.95 2916.92C4796.09 3265.83 4483.38 3592.86 4188.86 3696.81Z" fill="#00DD00"/>
<path d="M4872.83 2284.14C4779.94 2430.86 4667.57 2567.44 4581.75 2716.56C4591.32 2598.5 4603.92 2453.32 4562.49 2341.49C4490.7 2100.66 4427.62 1856.13 4407.27 1591.82L4410.08 1490.75C4464.1 1760.67 4702.98 1946.22 4687.9 2248.99C4693.37 2322.36 4672.93 2384.75 4660.55 2449.27L4664.65 2454.04L4675.41 2440.66C4710.84 2292.14 4728.71 2135.97 4783.79 1997.41C4862.07 1798.01 4959.81 1596.77 4919.98 1356.02C5039.03 1639.86 5002.96 2019.11 4872.83 2284.14Z" fill="#00DD00"/>
<path d="M4726.21 754.883C4882.84 990.508 4917.17 1366 4803.09 1636.27C4760.57 1750.81 4730.54 1872.86 4713.83 1999.63C4705.86 1977.76 4704.04 1948.37 4696.92 1924C4634.62 1659.45 4409.22 1470.91 4316.52 1221.48C4287.13 1139.91 4262.07 1055.63 4248.17 967.092C4347.22 1170.45 4591.33 1275.48 4657.86 1499.58C4685.11 1556.26 4683.58 1627.07 4700.49 1688.01C4704.04 1688.01 4707.59 1685.09 4707.59 1681.08C4678.3 1450.23 4687.24 1208.63 4715.46 980.648C4713.83 857.158 4702.98 737.371 4641.17 641.782C4680.8 667.414 4698.65 716.646 4726.21 754.883Z" fill="#00DD00"/>
<path d="M4615.78 709.653C4656.92 916.127 4596.82 1117.21 4634.62 1325.67L4633.21 1327.46C4532.02 1106.58 4317.18 1002.34 4169.37 825.553C4083.7 720.648 4046.46 592.796 4025.03 457.421C4109.73 684.083 4338.28 734.028 4469.49 925.029C4513.4 969.063 4527.72 1030.06 4556.03 1080L4560.66 1075.04C4485.2 896.238 4459.92 695.016 4407.27 504.322C4380.91 421.691 4328.6 340.501 4258.4 288.402C4430.65 327.475 4579.93 527.079 4615.78 709.653Z" fill="#00DD00"/>
<path d="M4155.28 236.126C4285 364.998 4343.67 531.863 4381.55 704.754L4402.97 759.659C4214.69 609.349 4043.65 407.291 3923.42 193.894L3776.59 29C3905.67 89.756 4044.84 126.023 4155.28 236.126Z" fill="#00DD00"/>
<path d="M1181.64 56.3643C1051.5 183.013 961.23 343.184 864.679 492.544C778.13 611.495 667.419 689.932 569.307 792.222C622.272 670.342 624.206 524.755 699.331 412.796C806.229 205.778 1004.46 132.946 1181.64 56.3643Z" fill="#00DD00"/>
<path d="M469.895 497.391C533.194 410.045 613.444 349.342 703.751 323.71C528.401 457.421 539.812 697.041 484.221 896.239C466.497 969.899 435.718 1037.76 420.383 1113.27L424.845 1117.21C454.022 1031.85 505.302 951.198 569.306 881.548C693.846 753.933 878.079 674.399 939.112 485.622C936.322 747.952 739.172 954.188 550.532 1101.62C472.741 1177.38 397.727 1263.71 354.888 1361.09C350.688 1294.91 363.701 1228.46 359.46 1157.56C338.945 928.556 324.039 667.177 469.895 497.391Z" fill="#00DD00"/>
<path d="M115.106 1280.45C109.829 1048.39 196.599 858.96 318.873 686.054C322.423 684.083 324.951 680.142 329.524 681.093C194.927 908.131 306.274 1194.11 300.14 1452.26L282.388 1716.57C285.027 1718.48 285.027 1726.43 291.271 1723.38C299.228 1693.92 300.955 1662.44 306.274 1632.13C337.979 1418.94 504.778 1267.66 650.468 1120.32C681.578 1081.79 709.084 1042.66 725.067 997.44C713.173 1103.59 683.195 1210.66 643.519 1308.83C530.128 1554.3 320.655 1755.7 282.388 2036.73C263.821 1767.42 98.6387 1566.07 115.106 1280.45Z" fill="#00DD00"/>
<path d="M13.2771 1610.45C28.349 1537.87 39.8704 1462.76 68.3288 1396.16C14.41 1702.95 200.301 1924 261.279 2189.92C286.795 2289.38 293.039 2396.2 329.524 2489.53C332.922 2491.57 335.878 2487.62 337.978 2484.63C247.188 2202.15 378.248 1939.66 509.944 1718.48C541.966 1658.55 560.423 1591.82 576.351 1522.93C590.346 1650.78 561.224 1798.01 544.495 1930.75C512.472 2099.64 464.673 2259.81 423.063 2423.69C395.682 2526.1 402.88 2641.63 416.943 2748.93L403.75 2737.23C307.199 2539.59 116.017 2385.45 59.2387 2169.54C12.5174 1997.41 -18.5383 1798.01 13.2771 1610.45Z" fill="#00DD00"/>
<path d="M4.56012 2209.64C25.821 2534.81 340.838 2706.64 486.86 2975.84C521.41 3030.92 551.388 3091.86 597.557 3137.97C590.346 3103.33 561.224 3074.18 550.532 3038.69C499.445 2925.78 480.823 2791.24 493.104 2654.77C507.25 2488.68 570.011 2334.56 546.056 2159.86C674.367 2466.95 635.396 2850.26 707.136 3183.02C725.923 3255.8 763.873 3320.79 788.739 3390.35C525.113 3191.04 165.64 3001.41 48.6843 2636.14C-0.606657 2510.2 -6.1049 2354.28 4.56012 2209.64Z" fill="#00DD00"/>
<path d="M162.034 2956.36C309.022 3325.47 677.157 3356.04 923.985 3580.81C969.408 3625.49 1017 3663.49 1068.28 3690L1070.92 3687.03C1014.25 3630.15 948.699 3565.38 909.024 3491.66C764.563 3268.7 815.373 2956.36 707.135 2716.56C805.482 2847.15 894.919 2982.89 954.294 3131.04C1042.61 3372.88 1076.36 3646.04 1280.72 3828.85C1059.56 3747.95 800.467 3770.55 605.265 3619.39C392.132 3473.98 201.917 3227.36 162.034 2956.36Z" fill="#00DD00"/>
<path d="M539.811 3644.95C775.49 3942.48 1160.59 3843.21 1474.53 3921.07C1518.87 3927.79 1559.46 3947.51 1606.46 3939.51C1569.04 3913.22 1517.11 3916.08 1476.26 3892.18C1230.17 3796.22 1194.08 3500.5 1060.49 3301.09C1231.16 3426.89 1374.63 3596.57 1532.08 3760.98C1645.25 3871.02 1781.48 3921.81 1925.01 3954.2C1890.52 3968.18 1845.3 3964.35 1808.28 3975.11C1550.41 4045.5 1263.92 4160.54 990.461 4057.55C812.679 3995.42 629.261 3839.37 539.811 3644.95Z" fill="#00DD00"/>
<path d="M3738.6 4338.48C3473.02 4448.5 3195.86 4333.45 2988.43 4158.85C2904.45 4099.6 2830.42 4014.28 2721.79 4021.82C2682.39 4021 2644.4 4023.14 2610.92 4033.88C2812.43 4137.97 2999.62 4281.47 3170.77 4465C3141.93 4501.55 3104.57 4535.75 3069.39 4567.28C2904.45 4370.01 2721.79 4180.14 2517.28 4069.24C2477.23 4075 2439.13 4101.75 2403.02 4123.28C2236.52 4240.13 2071.89 4390.44 1948.11 4574.45L1841.75 4476.96C2011.51 4286.35 2199.28 4137.97 2404.69 4031.97C2202.84 3961.01 2071.09 4148.7 1917.87 4244.18C1739.33 4382.56 1482.56 4447.54 1266.78 4352.07C1150.74 4303.21 1038.32 4231.26 954.295 4114.32C1124.11 4244.18 1377.01 4257.79 1570.13 4173.45C1829.26 4048.69 2098.54 3890.53 2410.93 3966.16C2459.69 3967.11 2507.06 4021 2553.11 3975.11C2785.3 3908.19 3048.17 3954.2 3248.06 4072L3454.1 4163.67C3645.6 4242.27 3893.18 4220.53 4057.33 4091.01C3972.94 4207.62 3857.65 4291.16 3738.6 4338.48Z" fill="#00DD00"/>
<path d="M4023.19 4033.87C3725.02 4158.85 3425.04 4005.44 3139.34 3954.2L3084.33 3946.44V3944.5C3220.95 3910.09 3353.55 3864.95 3462.29 3755.98C3622.44 3585.1 3764.96 3409.21 3942.81 3274.55C3810.92 3462.27 3796.94 3729.45 3579.07 3850.13C3525.15 3889.3 3457.09 3896.23 3401.45 3925.89C3480.8 3927.79 3553.45 3896.23 3632.03 3887.4C3924.18 3836.49 4258.4 3888.72 4463.36 3612.45C4387.27 3804.96 4196.71 3966.16 4023.19 4033.87Z" fill="#00DD00"/>
<path d="M4564.97 3102.61C4447.21 3188.16 4327.85 3267.5 4214.69 3364.77V3352.82C4388.01 3033.08 4303.29 2593.83 4410.07 2241.95L4449.9 2124.07C4427.62 2343.28 4513.39 2528.97 4507.37 2748.93C4501.35 2881.8 4462.28 2999.62 4399.42 3105.72H4410.07C4494.99 2981.92 4561.3 2850.26 4660.55 2732.34C4814.6 2567.44 4971.21 2398.36 4991.44 2169.54C5043.76 2551.54 4850.65 2886.34 4564.97 3102.61Z" fill="#00DD00"/>
</svg>
