<svg width="5000" height="4546" viewBox="0 0 5000 4546" fill="none" xmlns="http://www.w3.org/2000/svg">
<circle cx="2500" cy="2007" r="2000" fill="white"/>
<path d="M2436.16 383.13C2282.9 401.085 2087.56 494.955 1991.59 595.755L1970.87 617.14H1766.54C1607.78 617.14 1553.25 619.205 1522.87 627.5C1435.9 650.285 1369.61 699.285 1330.97 770.405L1307.48 813.91V1307.45V1801.05L1333.03 1854.88C1375.84 1943.92 1456.58 2012.28 1548.42 2036.43C1567.74 2041.96 1608.48 2046.09 1638.86 2046.09H1694.09L1660.95 2075.77L1627.8 2104.75L1629.87 2415.41L1631.93 2726.03L1654.72 2769.54C1694.76 2845.49 1778.3 2915.21 1878.37 2955.25C1932.9 2977.33 1936.36 2980.1 1956.38 3019.44C1976.4 3059.48 1991.59 3134.03 1997.79 3223.07L2001.92 3292.09L1950.15 3338.39C1880.43 3401.22 1859.71 3443.32 1859.71 3519.94C1859.71 3589.66 1881.1 3636.59 1935.66 3688.39C1998.49 3747.75 2088.93 3781.6 2233.2 3800.22C2325 3811.94 2692.96 3811.94 2784.06 3800.22C2976.67 3775.37 3092.62 3714.61 3138.19 3615.21C3185.13 3513.04 3151.98 3398.45 3053.28 3322.5L3013.94 3292.12L3018.77 3216.87C3027.07 3079.5 3053.98 2992.52 3093.32 2973.2C3102.28 2969.07 3121.64 2961.48 3136.83 2956.65C3230.03 2929.03 3319.77 2858.61 3355.65 2786.13L3378.43 2739.89L3380.5 2425.1L3382.56 2110.31L3358.41 2078.57L3334.93 2047.49L3401.18 2044.72C3450.88 2042.66 3477.13 2037.83 3502.65 2026.77C3586.16 1988.79 3651.75 1914.94 3678.66 1827.27C3691.79 1783.8 3692.45 1763.78 3692.45 1308.15C3692.45 851.15 3691.75 831.83 3678.66 793.155C3654.51 722.735 3601.35 668.205 3526.8 636.46C3490.22 621.27 3480.53 620.57 3267.94 618.505L3047.72 616.44L3012.51 583.295C2857.95 437.66 2632.9 359.645 2436.16 383.13ZM2619.07 533.63C2898.65 591.625 3091.92 824.935 3154.75 1182.53C3173.4 1285.4 3180.3 1508.35 3167.87 1611.21C3156.81 1710.61 3126.47 1825.9 3093.32 1897.02C3077.43 1929.47 3063.64 1956.38 3061.58 1956.38C3059.51 1956.38 3030.5 1948.79 2997.39 1939.13C2726.77 1860.45 2290.49 1860.45 2019.91 1939.13C1986.76 1948.79 1957.08 1956.38 1953.65 1956.38C1943.99 1956.38 1899.82 1853.52 1881.17 1787.26C1850.79 1679.57 1840.43 1598.82 1840.43 1455.92C1839.03 1172.21 1894.26 961.645 2015.08 786.295C2151.75 589.525 2395.42 487.36 2619.07 533.63ZM1928.77 791.09C1810.05 985.76 1752.05 1239.09 1761.71 1521.44C1766.54 1661.58 1790.69 1798.25 1826.6 1891.46C1832.13 1905.95 1610.55 1905.25 1576.7 1891.46C1534.6 1873.5 1504.92 1845.89 1483.5 1802.42L1462.78 1761.01V1312.98C1462.78 826.3 1462.08 839.425 1502.12 802.15C1540.09 766.24 1560.11 762.81 1761.68 762.81L1946.69 762.11L1928.77 791.09ZM3468.17 775.235C3499.92 789.725 3522.7 812.51 3533.06 840.125C3537.89 853.25 3540.66 1006.48 3540.66 1306.78C3540.66 1798.99 3540.66 1796.92 3497.85 1848.69C3459.88 1894.22 3437.13 1901.15 3303.18 1901.15C3195.49 1901.15 3187.19 1900.45 3190.66 1888.73C3239.66 1720.97 3252.78 1635.36 3252.78 1473.14C3253.48 1286.76 3231.4 1138.33 3183.76 1000.95C3160.31 932.595 3119.57 845.62 3087.83 795.22C3078.83 780.73 3071.27 767.605 3071.27 765.54C3071.27 763.475 3154.12 762.075 3256.28 762.075C3420.54 762.11 3443.32 763.475 3468.17 775.235ZM2639.09 1956.35C2903.48 1970.17 3089.86 2013.64 3201.72 2086.13C3245.19 2115.11 3264.54 2143.42 3264.54 2179.33C3264.54 2268.37 3032.6 2362.98 2726.1 2398.85C2628.77 2409.88 2380.27 2407.81 2271.17 2395.39C2044.76 2368.47 1870.77 2309.11 1792.09 2231.1C1747.22 2186.23 1747.22 2165.51 1793.46 2121.34C1881.83 2036.43 2108.25 1972.24 2374 1956.35C2503.12 1948.75 2498.95 1948.75 2639.09 1956.35ZM1845.92 2368.47C1934.3 2413.34 2079.23 2449.92 2239.39 2468.57C2356.05 2482.36 2694.99 2480.3 2798.55 2465.11C2959.41 2441.62 3118.87 2394.69 3214.14 2343.62C3249.35 2324.3 3250.72 2324.3 3254.88 2337.39C3256.95 2344.99 3256.95 2434.03 3254.18 2535.53C3250.05 2694.29 3247.29 2722.6 3236.23 2744.69C3211.38 2793.69 3143.72 2833.06 3082.96 2833.06C2971.14 2833.06 2909.68 2922.1 2871.04 3140.26C2866.91 3163.04 2862.08 3227.23 2859.31 3282.46L2855.18 3383.93L2900.05 3405.35C2947.69 3428.13 2991.86 3469.54 2999.45 3499.22C3016.71 3568.24 2953.22 3619.34 2815.84 3647.62C2795.12 3652.45 2677.77 3657.28 2553.52 3659.34C2309.85 3662.81 2204.22 3655.18 2122.07 3626.9C1979.87 3577.9 1979.87 3470.2 2122.07 3402.55L2162.11 3383.89L2157.98 3286.56C2151.09 3135.39 2132.43 3035.96 2093.79 2951.08C2056.52 2868.94 2006.82 2833.73 1930.87 2833.03C1881.87 2832.33 1812.81 2785.39 1785.2 2733.63C1770.71 2706.71 1770.01 2695.65 1767.94 2512.71L1765.88 2320.8L1785.2 2334.63C1795.52 2342.26 1823.14 2357.45 1845.92 2368.47Z" fill="black"/>
<ellipse cx="2515" cy="2173" rx="849" ry="323" fill="#00DD00" stroke="black" stroke-width="100"/>
<path d="M2374.14 2039.16C2105.98 2060.55 1978.23 2144.11 2081.96 2230.4C2114.22 2256.62 2199.61 2288.41 2288.78 2305.67C2367.82 2321.56 2626.49 2323.63 2706.17 2309.8C2857.33 2282.88 2956.6 2235.23 2971.8 2183.46C2977.51 2164.8 2962.31 2135.11 2938.29 2117.16C2851.01 2053.65 2613.22 2020.54 2374.14 2039.16ZM2684.66 2108.23C2758.66 2116.53 2845.3 2137.21 2873.74 2153.11C2912.96 2175.2 2891.44 2191.79 2788.35 2217.31C2697.93 2240.1 2625.82 2248.4 2503.75 2247.7C2379.17 2247.7 2296.93 2237.33 2197.65 2208.35C2112.9 2183.49 2102.8 2171.77 2148.34 2149.64C2178.7 2135.15 2253.96 2117.89 2323.51 2108.89C2392.48 2100.63 2608.79 2099.93 2684.66 2108.23Z" fill="#00DD00"/>
<ellipse cx="2515.5" cy="2172.5" rx="447.5" ry="142.5" fill="white" stroke="black" stroke-width="50"/>
<path d="M4188.86 3667.81C4036.44 3713.12 3873.8 3727.69 3725.78 3783.72C3976.49 3545.1 3962.17 3175.89 4129.44 2894.85C4182.73 2815.28 4226.77 2731.87 4288.88 2656.37C4187.13 2882.92 4231.26 3176.86 4114.37 3396.71C4069.38 3484.04 4005.03 3568.77 3933.87 3637.36C3957.12 3636.39 3977.47 3614.05 3997.91 3599.13C4187.77 3388.83 4435.8 3330.02 4641.17 3159.16C4723.44 3086.4 4798.78 2991.05 4834.95 2887.92C4796.09 3236.83 4483.38 3563.86 4188.86 3667.81Z" fill="#00DD00"/>
<path d="M4872.83 2255.14C4779.94 2401.86 4667.57 2538.44 4581.75 2687.56C4591.33 2569.5 4603.92 2424.32 4562.49 2312.49C4490.7 2071.66 4427.62 1827.13 4407.27 1562.82L4410.08 1461.75C4464.11 1731.67 4702.98 1917.22 4687.9 2219.99C4693.37 2293.36 4672.93 2355.75 4660.55 2420.27L4664.65 2425.04L4675.42 2411.66C4710.84 2263.14 4728.71 2106.97 4783.79 1968.41C4862.07 1769.01 4959.81 1567.77 4919.98 1327.02C5039.03 1610.86 5002.96 1990.11 4872.83 2255.14Z" fill="#00DD00"/>
<path d="M4726.21 725.883C4882.84 961.508 4917.17 1337 4803.09 1607.28C4760.57 1721.81 4730.54 1843.86 4713.83 1970.63C4705.86 1948.76 4704.04 1919.37 4696.92 1895C4634.62 1630.45 4409.22 1441.91 4316.52 1192.48C4287.13 1110.91 4262.07 1026.63 4248.17 938.092C4347.22 1141.45 4591.33 1246.48 4657.86 1470.58C4685.11 1527.26 4683.58 1598.07 4700.49 1659.01C4704.04 1659.01 4707.59 1656.09 4707.59 1652.08C4678.3 1421.23 4687.24 1179.63 4715.46 951.648C4713.83 828.158 4702.98 708.371 4641.17 612.782C4680.8 638.414 4698.65 687.646 4726.21 725.883Z" fill="#00DD00"/>
<path d="M4615.78 680.653C4656.92 887.127 4596.82 1088.21 4634.62 1296.67L4633.21 1298.46C4532.02 1077.58 4317.19 973.339 4169.37 796.553C4083.7 691.648 4046.46 563.795 4025.03 428.421C4109.73 655.083 4338.28 705.028 4469.49 896.029C4513.4 940.062 4527.72 1001.06 4556.03 1051L4560.66 1046.04C4485.2 867.238 4459.92 666.016 4407.27 475.322C4380.91 392.691 4328.6 311.501 4258.4 259.402C4430.65 298.474 4579.93 498.078 4615.78 680.653Z" fill="#00DD00"/>
<path d="M4155.28 207.126C4285 335.998 4343.67 502.863 4381.55 675.754L4402.98 730.659C4214.69 580.349 4043.65 378.291 3923.42 164.894L3776.59 0C3905.67 60.756 4044.84 97.0225 4155.28 207.126Z" fill="#00DD00"/>
<path d="M1181.64 27.3643C1051.5 154.013 961.23 314.184 864.679 463.544C778.13 582.495 667.419 660.932 569.307 763.222C622.272 641.342 624.206 495.755 699.331 383.796C806.229 176.778 1004.46 103.946 1181.64 27.3643Z" fill="#00DD00"/>
<path d="M469.895 468.391C533.194 381.045 613.444 320.342 703.751 294.71C528.401 428.421 539.812 668.041 484.221 867.239C466.497 940.899 435.718 1008.76 420.383 1084.27L424.845 1088.21C454.022 1002.85 505.302 922.198 569.306 852.548C693.846 724.933 878.079 645.399 939.112 456.622C936.322 718.952 739.172 925.188 550.532 1072.62C472.741 1148.38 397.727 1234.71 354.888 1332.09C350.688 1265.91 363.701 1199.46 359.46 1128.56C338.945 899.556 324.039 638.177 469.895 468.391Z" fill="#00DD00"/>
<path d="M115.106 1251.45C109.829 1019.39 196.599 829.96 318.873 657.053C322.424 655.083 324.952 651.142 329.525 652.093C194.928 879.13 306.274 1165.11 300.141 1423.26L282.389 1687.57C285.027 1689.48 285.027 1697.43 291.272 1694.38C299.229 1664.92 300.956 1633.44 306.274 1603.13C337.979 1389.94 504.778 1238.66 650.468 1091.32C681.579 1052.79 709.084 1013.66 725.068 968.44C713.173 1074.59 683.195 1181.66 643.519 1279.83C530.128 1525.3 320.656 1726.7 282.389 2007.73C263.822 1738.42 98.6392 1537.07 115.106 1251.45Z" fill="#00DD00"/>
<path d="M13.2771 1581.45C28.349 1508.87 39.8704 1433.76 68.3288 1367.16C14.41 1673.95 200.301 1895 261.279 2160.92C286.795 2260.38 293.039 2367.2 329.524 2460.53C332.922 2462.57 335.878 2458.62 337.978 2455.63C247.188 2173.15 378.248 1910.66 509.944 1689.48C541.966 1629.55 560.423 1562.82 576.351 1493.93C590.346 1621.78 561.224 1769.01 544.495 1901.75C512.472 2070.64 464.673 2230.81 423.063 2394.69C395.682 2497.1 402.88 2612.63 416.943 2719.93L403.75 2708.23C307.199 2510.59 116.017 2356.45 59.2387 2140.54C12.5174 1968.41 -18.5383 1769.01 13.2771 1581.45Z" fill="#00DD00"/>
<path d="M4.56012 2180.64C25.821 2505.81 340.838 2677.64 486.86 2946.84C521.41 3001.92 551.388 3062.86 597.557 3108.97C590.346 3074.33 561.224 3045.18 550.532 3009.69C499.445 2896.78 480.823 2762.24 493.104 2625.77C507.25 2459.68 570.011 2305.55 546.056 2130.86C674.367 2437.95 635.396 2821.26 707.136 3154.02C725.923 3226.8 763.873 3291.79 788.739 3361.35C525.113 3162.04 165.64 2972.41 48.6843 2607.14C-0.606657 2481.2 -6.1049 2325.28 4.56012 2180.64Z" fill="#00DD00"/>
<path d="M162.034 2927.36C309.023 3296.47 677.158 3327.04 923.985 3551.81C969.408 3596.49 1017 3634.49 1068.28 3661L1070.92 3658.03C1014.25 3601.15 948.7 3536.38 909.024 3462.66C764.564 3239.7 815.374 2927.36 707.136 2687.56C805.483 2818.15 894.919 2953.89 954.295 3102.04C1042.61 3343.88 1076.36 3617.04 1280.72 3799.85C1059.56 3718.95 800.468 3741.55 605.266 3590.39C392.132 3444.98 201.917 3198.36 162.034 2927.36Z" fill="#00DD00"/>
<path d="M539.811 3615.95C775.49 3913.48 1160.59 3814.21 1474.53 3892.07C1518.87 3898.79 1559.46 3918.51 1606.46 3910.51C1569.04 3884.22 1517.11 3887.08 1476.26 3863.18C1230.17 3767.22 1194.08 3471.5 1060.49 3272.09C1231.15 3397.89 1374.63 3567.57 1532.08 3731.98C1645.25 3842.02 1781.48 3892.81 1925.01 3925.2C1890.52 3939.18 1845.3 3935.35 1808.28 3946.11C1550.41 4016.5 1263.92 4131.54 990.461 4028.55C812.679 3966.42 629.261 3810.37 539.811 3615.95Z" fill="#00DD00"/>
<path d="M3738.6 4309.48C3473.02 4419.5 3195.86 4304.45 2988.43 4129.85C2904.45 4070.6 2830.42 3985.28 2721.79 3992.82C2682.39 3992 2644.4 3994.14 2610.92 4004.88C2812.43 4108.97 2999.62 4252.47 3170.77 4436C3141.93 4472.55 3104.57 4506.75 3069.38 4538.28C2904.45 4341.01 2721.79 4151.14 2517.28 4040.24C2477.23 4046 2439.13 4072.75 2403.02 4094.28C2236.52 4211.13 2071.89 4361.44 1948.11 4545.45L1841.75 4447.96C2011.51 4257.35 2199.28 4108.97 2404.69 4002.98C2202.84 3932.01 2071.09 4119.7 1917.87 4215.18C1739.33 4353.56 1482.56 4418.54 1266.78 4323.07C1150.74 4274.21 1038.32 4202.26 954.295 4085.32C1124.11 4215.18 1377.01 4228.79 1570.13 4144.45C1829.26 4019.69 2098.54 3861.53 2410.93 3937.16C2459.69 3938.11 2507.06 3992 2553.11 3946.11C2785.3 3879.19 3048.17 3925.2 3248.06 4043L3454.1 4134.67C3645.6 4213.27 3893.18 4191.53 4057.33 4062.01C3972.94 4178.62 3857.65 4262.16 3738.6 4309.48Z" fill="#00DD00"/>
<path d="M4023.19 4004.87C3725.02 4129.85 3425.04 3976.44 3139.34 3925.2L3084.33 3917.44V3915.5C3220.95 3881.09 3353.55 3835.95 3462.29 3726.98C3622.44 3556.1 3764.96 3380.21 3942.81 3245.55C3810.92 3433.27 3796.94 3700.45 3579.07 3821.13C3525.15 3860.3 3457.09 3867.23 3401.45 3896.89C3480.8 3898.79 3553.45 3867.23 3632.03 3858.4C3924.18 3807.49 4258.4 3859.72 4463.36 3583.45C4387.27 3775.96 4196.71 3937.16 4023.19 4004.87Z" fill="#00DD00"/>
<path d="M4564.97 3073.61C4447.21 3159.16 4327.85 3238.5 4214.69 3335.77V3323.82C4388.01 3004.08 4303.29 2564.83 4410.08 2212.95L4449.9 2095.07C4427.62 2314.28 4513.4 2499.97 4507.37 2719.93C4501.35 2852.8 4462.28 2970.62 4399.42 3076.72H4410.08C4494.99 2952.92 4561.3 2821.26 4660.55 2703.34C4814.6 2538.44 4971.22 2369.36 4991.44 2140.54C5043.76 2522.54 4850.65 2857.34 4564.97 3073.61Z" fill="#00DD00"/>
</svg>
